<?xml version="1.0" encoding="utf-8"?>
<svg version="1.1" xmlns="http://www.w3.org/2000/svg" xmlns:xlink="http://www.w3.org/1999/xlink" x="0px" y="0px"
	 width="400px" height="400px" viewBox="0 0 400 400" style="enable-background:new 0 0 400 400;" xml:space="preserve">
  <path d="M100,50c-27.6,0-50,22.4-50,50s22.4,50,50,50s50-22.4,50-50C150,72.3,127.7,50,100,50z M100,129.2
    c-16.1,0-29.2-13.1-29.2-29.2S83.9,70.8,100,70.8s29.2,13.1,29.2,29.2S116.1,129.2,100,129.2z"/>
  <path d="M300,275c-10.9,0-20.9,3.5-29.2,9.4v-57.3H250v145.8h20.8v-7.3v-42.2h0.1c0.8-15.4,13.5-27.6,29.1-27.6s28.3,12.2,29.1,27.6
    h0.1v1.5c0,0,0,0,0,0.1c0,0,0,0,0,0.1v40.6l0,0v7.3H350V325C350,297.3,327.7,275,300,275z"/>
  <circle cx="100" cy="300" r="10.4"/>
  <circle cx="300" cy="100" r="10.4"/>
</svg>
